<svg width="29" height="29" viewBox="0 0 29 29" fill="none" xmlns="http://www.w3.org/2000/svg">
<g clip-path="url(#clip0_1764_435)">
<path d="M19.3967 9.23559L11.7083 16.9239L7.52 12.7473L5.875 14.3923L11.7083 20.2256L21.0417 10.8923L19.3967 9.23559ZM14.0417 2.72559C7.60167 2.72559 2.375 7.95225 2.375 14.3923C2.375 20.8323 7.60167 26.0589 14.0417 26.0589C20.4817 26.0589 25.7083 20.8323 25.7083 14.3923C25.7083 7.95225 20.4817 2.72559 14.0417 2.72559ZM14.0417 23.7256C8.885 23.7256 4.70833 19.5489 4.70833 14.3923C4.70833 9.23559 8.885 5.05892 14.0417 5.05892C19.1983 5.05892 23.375 9.23559 23.375 14.3923C23.375 19.5489 19.1983 23.7256 14.0417 23.7256Z" fill="#999999"/>
</g>
<defs>
<clipPath id="clip0_1764_435">
<rect width="28" height="28" fill="white" transform="translate(0.0410156 0.392578)"/>
</clipPath>
</defs>
</svg>
